# xmcd CD database file
#
# Track frame offsets:
#	182
#	13132
#	28962
#	51445
#	69542
#
# Disc length: 1131 seconds
#
# Revision: 0
# Processed by: cddbd v1.4PL0 Copyright (c) Steve Scherf et al.
# Submitted via: CDex 1.50beta10
#
DISCID=45046905
DTITLE=Doo The Doo - Doo The Doo
DYEAR=1900
DGENRE=Blues
TTITLE0=My babe
TTITLE1=Ain't gonna be your fool no more
TTITLE2=Low trick
TTITLE3=Hoochie Coochie girl
TTITLE4=Real gone lover
EXTD=
EXTT0=
EXTT1=
EXTT2=
EXTT3=
EXTT4=
PLAYORDER=
